<svg width="24" height="24" viewBox="0 0 24 24" fill="none" xmlns="http://www.w3.org/2000/svg">
<path d="M12 22C17.5228 22 22 17.5228 22 12C22 6.47715 17.5228 2 12 2C6.47715 2 2 6.47715 2 12C2 17.5228 6.47715 22 12 22Z" fill="#FFDF8E"/>
<path fill-rule="evenodd" clip-rule="evenodd" d="M12 1.84615C6.39219 1.84615 1.84615 6.39219 1.84615 12C1.84615 17.6078 6.39219 22.1538 12 22.1538C17.6078 22.1538 22.1538 17.6078 22.1538 12C22.1538 6.39219 17.6078 1.84615 12 1.84615ZM1.04907e-06 12C-2.78888e-07 5.37258 5.37258 2.78888e-07 12 -1.04907e-06C18.6274 -4.69686e-07 24 5.37258 24 12C24 18.6274 18.6274 24 12 24C5.37258 24 4.69686e-07 18.6274 1.04907e-06 12ZM12.9231 5.53846C12.9231 5.02866 12.5098 4.61538 12 4.61538C11.4902 4.61538 11.0769 5.02866 11.0769 5.53846L11.0769 6.46154L10.6154 6.46154C9.75853 6.46154 8.93677 6.80192 8.33089 7.40781C7.725 8.0137 7.38462 8.83545 7.38462 9.69231C7.38462 10.5492 7.725 11.3709 8.33089 11.9768C8.93677 12.5827 9.75853 12.9231 10.6154 12.9231L13.3846 12.9231C13.7518 12.9231 14.104 13.069 14.3637 13.3286C14.6234 13.5883 14.7692 13.9405 14.7692 14.3077C14.7692 14.6749 14.6234 15.0271 14.3637 15.2868C14.104 15.5464 13.7518 15.6923 13.3846 15.6923L12 15.6923L9.23077 15.6923C8.72097 15.6923 8.30769 16.1056 8.30769 16.6154C8.30769 17.1252 8.72097 17.5385 9.23077 17.5385L11.0769 17.5385L11.0769 18.4615C11.0769 18.9713 11.4902 19.3846 12 19.3846C12.5098 19.3846 12.9231 18.9713 12.9231 18.4615L12.9231 17.5385L13.3846 17.5385C14.2415 17.5385 15.0632 17.1981 15.6691 16.5922C16.275 15.9863 16.6154 15.1645 16.6154 14.3077C16.6154 13.4508 16.275 12.6291 15.6691 12.0232C15.0632 11.4173 14.2415 11.0769 13.3846 11.0769L10.6154 11.0769C10.2482 11.0769 9.89598 10.931 9.63631 10.6714C9.37665 10.4117 9.23077 10.0595 9.23077 9.69231C9.23077 9.32508 9.37665 8.9729 9.63631 8.71324C9.89598 8.45357 10.2482 8.30769 10.6154 8.30769L12 8.30769L14.7692 8.30769C15.279 8.30769 15.6923 7.89442 15.6923 7.38462C15.6923 6.87481 15.279 6.46154 14.7692 6.46154L12.9231 6.46154L12.9231 5.53846Z" fill="#010700"/>
</svg>
