<svg width="24" height="24" viewBox="0 0 24 24" fill="none" xmlns="http://www.w3.org/2000/svg">
<path d="M21.5333 5H2.46667C2.07782 5.00044 1.70502 5.15511 1.43007 5.43007C1.15511 5.70502 1.00044 6.07782 1 6.46667V16.7333C1.00044 17.1222 1.15511 17.495 1.43007 17.7699C1.70502 18.0449 2.07782 18.1996 2.46667 18.2H21.5333C21.9222 18.1996 22.295 18.0449 22.5699 17.7699C22.8449 17.495 22.9996 17.1222 23 16.7333V6.46667C22.9996 6.07782 22.8449 5.70502 22.5699 5.43007C22.295 5.15511 21.9222 5.00044 21.5333 5ZM7.13795 16.7333L2.46667 12.7294V10.4706L7.13795 6.46667H16.862L21.5337 10.4709L21.5339 12.7289L16.862 16.7333H7.13795ZM15.6667 11.6C15.6667 12.3252 15.4516 13.0341 15.0487 13.6371C14.6458 14.2401 14.0732 14.71 13.4032 14.9876C12.7332 15.2651 11.9959 15.3377 11.2847 15.1962C10.5734 15.0547 9.92007 14.7055 9.40728 14.1927C8.89448 13.6799 8.54527 13.0266 8.40379 12.3153C8.26231 11.6041 8.33492 10.8668 8.61244 10.1968C8.88996 9.52683 9.35993 8.95418 9.96291 8.55128C10.5659 8.14838 11.2748 7.93333 12 7.93333C12.9721 7.93445 13.9041 8.32111 14.5915 9.0085C15.2789 9.6959 15.6656 10.6279 15.6667 11.6Z" fill="#010700"/>
</svg>
