<svg width="16" height="16" viewBox="0 0 16 16" fill="none" xmlns="http://www.w3.org/2000/svg">
<path d="M14 3.00005H2.00034C1.73522 3.00035 1.48105 3.1058 1.29359 3.29327C1.10612 3.48073 1.00067 3.7349 1.00037 4.00002V6.04599C1.00034 6.04843 1 6.05081 1 6.05325C1 6.05569 1.00034 6.05807 1.00037 6.06051V11.9998C1.00067 12.2649 1.10612 12.5191 1.29359 12.7066C1.48105 12.894 1.73522 12.9995 2.00034 12.9998H14C14.2651 12.9995 14.5193 12.894 14.7068 12.7066C14.8942 12.5191 14.9997 12.2649 15 11.9998V4.00002C14.9997 3.7349 14.8942 3.48073 14.7068 3.29327C14.5193 3.1058 14.2651 3.00035 14 3.00005ZM8.4998 10.9998H7.49983C7.36723 10.9998 7.24005 10.9472 7.14629 10.8534C7.05252 10.7596 6.99984 10.6325 6.99984 10.4998C6.99984 10.3672 7.05252 10.2401 7.14629 10.1463C7.24005 10.0525 7.36723 9.99986 7.49983 9.99986H8.4998C8.63241 9.99986 8.75958 10.0525 8.85335 10.1463C8.94711 10.2401 8.99979 10.3672 8.99979 10.4998C8.99979 10.6325 8.94711 10.7596 8.85335 10.8534C8.75958 10.9472 8.63241 10.9998 8.4998 10.9998ZM12.4997 10.9998H10.4998C10.3671 10.9998 10.24 10.9472 10.1462 10.8534C10.0524 10.7596 9.99976 10.6325 9.99976 10.4998C9.99976 10.3672 10.0524 10.2401 10.1462 10.1463C10.24 10.0525 10.3671 9.99986 10.4998 9.99986H12.4997C12.6323 9.99986 12.7595 10.0525 12.8532 10.1463C12.947 10.2401 12.9997 10.3672 12.9997 10.4998C12.9997 10.6325 12.947 10.7596 12.8532 10.8534C12.7595 10.9472 12.6323 10.9998 12.4997 10.9998ZM2.00034 5.55326V4.00002H14L14.0002 5.55326H2.00034Z" fill="#656360"/>
</svg>
