<svg width="16" height="16" viewBox="0 0 16 16" fill="none" xmlns="http://www.w3.org/2000/svg">
<path d="M6.77848 7.38951L2.19643 7.39011C2.07558 7.39012 1.95743 7.3543 1.85694 7.28717C1.75645 7.22003 1.67812 7.12461 1.63187 7.01296C1.58561 6.90131 1.5735 6.77845 1.59707 6.65992C1.62063 6.54139 1.67882 6.4325 1.76427 6.34704L3.62359 4.48775L0.845575 1.70975C0.730989 1.59516 0.666619 1.43974 0.666626 1.27768C0.666633 1.11562 0.731016 0.960207 0.845612 0.845621C0.960208 0.731035 1.11563 0.666665 1.27769 0.666672C1.43974 0.666679 1.59516 0.731062 1.70975 0.845658L4.48768 3.62361L6.34692 1.76439C6.43238 1.67894 6.54125 1.62075 6.65978 1.59718C6.7783 1.5736 6.90116 1.5857 7.01281 1.63195C7.12446 1.67819 7.21989 1.7565 7.28703 1.85698C7.35417 1.95746 7.39002 2.07559 7.39003 2.19644V2.19651L7.38943 6.77857C7.38941 6.9406 7.32504 7.09598 7.21047 7.21055C7.0959 7.32512 6.94051 7.38949 6.77848 7.38951ZM15.3333 14.1113L15.3333 3.72399C15.3329 3.4 15.2041 3.08938 14.975 2.86028C14.7459 2.63119 14.4352 2.50232 14.1113 2.50195L10.4451 2.50195C10.2831 2.50195 10.1277 2.56632 10.0131 2.68091C9.89848 2.7955 9.83411 2.95092 9.83411 3.11297C9.83411 3.27502 9.89848 3.43044 10.0131 3.54502C10.1277 3.65961 10.2831 3.72399 10.4451 3.72399H14.1113V14.1113H3.7239V10.4452C3.7239 10.2832 3.65953 10.1277 3.54494 10.0132C3.43035 9.89857 3.27494 9.83419 3.11288 9.83419C2.95083 9.83419 2.79542 9.89857 2.68083 10.0132C2.56624 10.1277 2.50186 10.2832 2.50186 10.4452L2.50186 14.1113C2.50223 14.4353 2.6311 14.7459 2.8602 14.975C3.0893 15.2041 3.39991 15.333 3.7239 15.3334L14.1113 15.3334C14.4352 15.333 14.7459 15.2041 14.975 14.975C15.2041 14.7459 15.3329 14.4353 15.3333 14.1113Z" fill="#656360"/>
</svg>
