<svg width="24" height="24" viewBox="0 0 24 24" fill="none" xmlns="http://www.w3.org/2000/svg">
<path d="M21.3612 7.16369L15.4453 1.24779C15.4369 1.23932 15.4277 1.23189 15.4189 1.22383C15.4075 1.21335 15.3964 1.2025 15.3844 1.19264C15.3764 1.18613 15.3679 1.18045 15.3598 1.1742C15.3459 1.16361 15.3322 1.15287 15.3178 1.14311C15.3112 1.13872 15.3042 1.13505 15.2976 1.13087C15.2808 1.12028 15.2641 1.10975 15.2465 1.10029C15.2418 1.09776 15.2368 1.0958 15.232 1.09337C15.2122 1.08315 15.1922 1.07334 15.1715 1.06471C15.1683 1.06337 15.1649 1.06238 15.1616 1.0611C15.1393 1.05216 15.1168 1.04379 15.0936 1.03677C15.0903 1.03574 15.0868 1.03512 15.0835 1.03413C15.0605 1.02747 15.0373 1.02133 15.0136 1.01658C15.006 1.01508 14.9982 1.01441 14.9907 1.01312C14.971 1.00971 14.9515 1.00625 14.9315 1.00428C14.9034 1.00143 14.8752 1 14.847 1H4.69231C4.24364 1.00051 3.81349 1.17897 3.49623 1.49623C3.17897 1.81349 3.00051 2.24364 3 2.69231V21.3077C3.00051 21.7564 3.17897 22.1865 3.49623 22.5038C3.81349 22.821 4.24364 22.9995 4.69231 23H19.9239C20.3726 22.9995 20.8027 22.821 21.12 22.5038C21.4372 22.1865 21.6157 21.7564 21.6162 21.3077V7.7856C21.6163 7.78008 21.617 7.77476 21.617 7.76923C21.6171 7.65631 21.5945 7.54453 21.5506 7.44051C21.5066 7.33649 21.4423 7.24235 21.3612 7.16369ZM14.847 7.76923V3.04277L19.5733 7.76923H14.847Z" fill="#010700"/>
</svg>
