<svg width="24" height="24" viewBox="0 0 24 24" fill="none" xmlns="http://www.w3.org/2000/svg">
<path d="M21 11.2501V19.5001C21 19.8979 20.842 20.2794 20.5607 20.5607C20.2794 20.842 19.8978 21.0001 19.5 21.0001H4.5C4.10218 21.0001 3.72064 20.842 3.43934 20.5607C3.15804 20.2794 3 19.8979 3 19.5001V4.50007C3 4.10224 3.15804 3.72071 3.43934 3.43941C3.72064 3.1581 4.10218 3.00007 4.5 3.00007H12.75C12.9489 3.00007 13.1397 3.07909 13.2803 3.21974C13.421 3.36039 13.5 3.55116 13.5 3.75007C13.5 3.94898 13.421 4.13975 13.2803 4.2804C13.1397 4.42105 12.9489 4.50007 12.75 4.50007H4.5V19.5001H19.5V11.2501C19.5 11.0512 19.579 10.8604 19.7197 10.7197C19.8603 10.5791 20.0511 10.5001 20.25 10.5001C20.4489 10.5001 20.6397 10.5791 20.7803 10.7197C20.921 10.8604 21 11.0512 21 11.2501ZM21.5344 6.53444L12.5344 15.5344C12.3915 15.6737 12.1995 15.7512 12 15.7501H9C8.80109 15.7501 8.61032 15.6711 8.46967 15.5304C8.32902 15.3897 8.25 15.199 8.25 15.0001V12.0001C8.24888 11.8005 8.32633 11.6086 8.46563 11.4657L17.4656 2.46569C17.6078 2.32486 17.7999 2.24585 18 2.24585C18.2001 2.24585 18.3922 2.32486 18.5344 2.46569L21.5344 5.46569C21.6752 5.60789 21.7542 5.79993 21.7542 6.00007C21.7542 6.2002 21.6752 6.39225 21.5344 6.53444ZM19.9406 6.00007L18 4.05944L16.8094 5.25007L18.75 7.19069L19.9406 6.00007Z" fill="#010700"/>
</svg>
