<svg width="16" height="16" viewBox="0 0 16 16" fill="none" xmlns="http://www.w3.org/2000/svg">
<path fill-rule="evenodd" clip-rule="evenodd" d="M9.65437 2.17906C9.41571 1.9404 9.02878 1.9404 8.79013 2.17906C8.55147 2.41771 8.55147 2.80465 8.79013 3.0433L13.2469 7.50007L1.2778 7.50007C0.940296 7.50007 0.666692 7.77367 0.666692 8.11118C0.666692 8.44868 0.940296 8.72229 1.2778 8.72229L13.2469 8.72229L8.79013 13.1791C8.55147 13.4177 8.55147 13.8046 8.79013 14.0433C9.02878 14.282 9.41571 14.282 9.65437 14.0433L15.1538 8.54388L15.1544 8.5433M9.65437 2.17906L15.1538 7.67847L9.65437 2.17906ZM15.1544 7.67906C15.1557 7.68039 15.157 7.68172 15.1583 7.68306L15.1544 7.67906ZM15.1583 7.68306C15.2128 7.73852 15.2567 7.80433 15.287 7.87725C15.2578 7.80681 15.215 7.74072 15.1583 7.68306ZM15.287 8.3451C15.2567 8.41803 15.2128 8.48383 15.1583 8.53929C15.215 8.48164 15.2578 8.41554 15.287 8.3451Z"/>
</svg>
