<svg width="16" height="16" viewBox="0 0 16 16" fill="none" xmlns="http://www.w3.org/2000/svg">
<path d="M8 1C6.61553 1 5.26216 1.41054 4.11101 2.17971C2.95987 2.94888 2.06266 4.04213 1.53285 5.32122C1.00303 6.6003 0.86441 8.00776 1.13451 9.36563C1.4046 10.7235 2.07129 11.9708 3.05026 12.9497C4.02922 13.9287 5.2765 14.5954 6.63437 14.8655C7.99224 15.1356 9.3997 14.997 10.6788 14.4672C11.9579 13.9373 13.0511 13.0401 13.8203 11.889C14.5895 10.7378 15 9.38447 15 8C14.9979 6.14413 14.2597 4.36487 12.9474 3.05257C11.6351 1.74027 9.85587 1.0021 8 1ZM7.86542 4.23079C8.02517 4.23079 8.18133 4.27816 8.31415 4.36691C8.44698 4.45566 8.5505 4.58181 8.61163 4.7294C8.67277 4.87698 8.68876 5.03938 8.6576 5.19606C8.62643 5.35274 8.5495 5.49665 8.43655 5.60961C8.32359 5.72257 8.17967 5.79949 8.023 5.83066C7.86632 5.86182 7.70392 5.84583 7.55633 5.7847C7.40875 5.72356 7.2826 5.62004 7.19385 5.48722C7.1051 5.35439 7.05773 5.19823 7.05773 5.03849C7.05773 4.82427 7.14283 4.61883 7.2943 4.46736C7.44577 4.31589 7.65121 4.23079 7.86542 4.23079ZM8.53847 11.7692H8.00001C7.8572 11.7692 7.72024 11.7125 7.61926 11.6115C7.51828 11.5105 7.46155 11.3736 7.46154 11.2308V8C7.31874 8 7.18178 7.94327 7.08079 7.84229C6.97981 7.74131 6.92308 7.60435 6.92308 7.46154C6.92308 7.31873 6.97981 7.18177 7.08079 7.08079C7.18178 6.97981 7.31874 6.92308 7.46154 6.92308H8.00001C8.14281 6.92308 8.27977 6.97982 8.38075 7.0808C8.48173 7.18178 8.53846 7.31873 8.53847 7.46154V10.6923C8.68128 10.6923 8.81824 10.749 8.91922 10.85C9.0202 10.951 9.07693 11.088 9.07693 11.2308C9.07693 11.3736 9.0202 11.5105 8.91922 11.6115C8.81824 11.7125 8.68128 11.7692 8.53847 11.7692Z" fill="#C6882C"/>
</svg>
