<svg width="16" height="16" viewBox="0 0 16 16" fill="none" xmlns="http://www.w3.org/2000/svg">
<path d="M14.7222 7.38885H8.61107V1.27774C8.61107 1.11566 8.54669 0.960222 8.43208 0.845616C8.31747 0.731011 8.16204 0.666626 7.99996 0.666626C7.83788 0.666626 7.68244 0.731011 7.56784 0.845616C7.45323 0.960222 7.38885 1.11566 7.38885 1.27774V7.38885H1.27774C1.11566 7.38885 0.960222 7.45323 0.845616 7.56784C0.731011 7.68244 0.666626 7.83788 0.666626 7.99996C0.666626 8.16204 0.731011 8.31747 0.845616 8.43208C0.960222 8.54669 1.11566 8.61107 1.27774 8.61107H7.38885V14.7222C7.38885 14.8843 7.45323 15.0397 7.56784 15.1543C7.68244 15.2689 7.83788 15.3333 7.99996 15.3333C8.16204 15.3333 8.31747 15.2689 8.43208 15.1543C8.54669 15.0397 8.61107 14.8843 8.61107 14.7222V8.61107H14.7222C14.8843 8.61107 15.0397 8.54669 15.1543 8.43208C15.2689 8.31747 15.3333 8.16204 15.3333 7.99996C15.3333 7.83788 15.2689 7.68244 15.1543 7.56784C15.0397 7.45323 14.8843 7.38885 14.7222 7.38885Z" fill="#010700"/>
</svg>
