<svg width="14" height="13" viewBox="0 0 14 13" fill="none" xmlns="http://www.w3.org/2000/svg">
<path d="M1.75879e-05 6.46153C0.00146486 5.1767 0.512504 3.9449 1.42102 3.03639C2.32953 2.12788 3.56133 1.61684 4.84616 1.61539H11.3077V0.538469C11.3077 0.431968 11.3393 0.327859 11.3984 0.239308C11.4576 0.150756 11.5417 0.0817394 11.6401 0.0409851C11.7385 0.000230796 11.8468 -0.0104305 11.9512 0.0103495C12.0557 0.0311295 12.1516 0.0824176 12.2269 0.157727L13.8423 1.77311C13.9433 1.87409 14 2.01104 14 2.15385C14 2.29665 13.9433 2.43361 13.8423 2.53459L12.2269 4.14997C12.1516 4.22528 12.0557 4.27657 11.9512 4.29735C11.8468 4.31813 11.7385 4.30747 11.6401 4.26671C11.5417 4.22596 11.4576 4.15694 11.3984 4.06839C11.3393 3.97984 11.3077 3.87573 11.3077 3.76923V2.69231H4.84616C3.84685 2.69344 2.88878 3.09091 2.18216 3.79753C1.47554 4.50415 1.07806 5.46222 1.07694 6.46153C1.07694 6.60434 1.02021 6.7413 0.919227 6.84228C0.818246 6.94326 0.681286 6.99999 0.538478 6.99999C0.395669 6.99999 0.25871 6.94326 0.157729 6.84228C0.056748 6.7413 1.75879e-05 6.60434 1.75879e-05 6.46153ZM13.4615 5.92307C13.3187 5.92308 13.1818 5.97981 13.0808 6.08079C12.9798 6.18177 12.9231 6.31872 12.9231 6.46153C12.9219 7.46084 12.5245 8.41891 11.8178 9.12553C11.1112 9.83215 10.1532 10.2296 9.15384 10.2308H2.69232V9.15383C2.69232 9.04733 2.66074 8.94322 2.60157 8.85467C2.5424 8.76612 2.4583 8.6971 2.35991 8.65635C2.26151 8.61559 2.15324 8.60493 2.04879 8.62571C1.94433 8.64649 1.84839 8.69778 1.77308 8.77309L0.157704 10.3885C0.0567274 10.4895 0 10.6264 0 10.7692C0 10.912 0.0567274 11.049 0.157704 11.15L1.77308 12.7653C1.84839 12.8406 1.94433 12.8919 2.04879 12.9127C2.15324 12.9335 2.26151 12.9228 2.35991 12.8821C2.4583 12.8413 2.5424 12.7723 2.60157 12.6838C2.66074 12.5952 2.69232 12.4911 2.69232 12.3846V11.3077H9.15384C10.4387 11.3062 11.6705 10.7952 12.579 9.88667C13.4875 8.97816 13.9985 7.74636 14 6.46153C14 6.31872 13.9432 6.18177 13.8423 6.08079C13.7413 5.97981 13.6043 5.92308 13.4615 5.92307Z"/>
</svg>
