<svg width="24" height="24" viewBox="0 0 24 24" fill="none" xmlns="http://www.w3.org/2000/svg">
<path fill-rule="evenodd" clip-rule="evenodd" d="M12 1.84615C6.39219 1.84615 1.84615 6.39219 1.84615 12C1.84615 14.5887 2.81489 16.9511 4.40963 18.7446C5.13673 17.6951 6.07632 16.8039 7.17239 16.1317C7.62048 15.8569 8.08933 15.622 8.57352 15.4285C7.28728 14.4143 6.46156 12.842 6.46156 11.0769C6.46156 8.01809 8.94121 5.53844 12 5.53844C15.0588 5.53844 17.5385 8.01809 17.5385 11.0769C17.5385 12.842 16.7127 14.4143 15.4265 15.4285C15.9106 15.622 16.3795 15.8569 16.8275 16.1317C17.9236 16.8039 18.8632 17.6951 19.5903 18.7446C21.1851 16.9512 22.1538 14.5887 22.1538 12C22.1538 6.39219 17.6078 1.84615 12 1.84615ZM20.0353 20.9128C22.4698 18.7165 24 15.537 24 12C24 5.37258 18.6274 -4.69686e-07 12 -1.04907e-06C5.37258 2.78888e-07 -2.78888e-07 5.37258 1.04907e-06 12C7.39998e-07 15.5354 1.52888 18.7137 3.96155 20.9099C3.96976 20.9175 3.97813 20.9251 3.98667 20.9325C6.11128 22.8397 8.92014 24 12 24C15.0814 24 17.8915 22.8386 20.0165 20.9296C20.0228 20.9241 20.0291 20.9185 20.0353 20.9128ZM18.2241 20.0232C17.6239 19.0846 16.8174 18.2911 15.8624 17.7054C14.7001 16.9926 13.3633 16.6154 12 16.6154C10.6366 16.6154 9.29979 16.9927 8.13757 17.7054C7.18257 18.2911 6.37606 19.0846 5.77589 20.0231C7.49492 21.3586 9.6546 22.1538 12 22.1538C14.3454 22.1538 16.5051 21.3587 18.2241 20.0232ZM12 7.38459C9.96081 7.38459 8.30771 9.0377 8.30771 11.0769C8.30771 13.1161 9.96081 14.7692 12 14.7692C14.0392 14.7692 15.6923 13.1161 15.6923 11.0769C15.6923 9.0377 14.0392 7.3846 12 7.38459Z" fill="#83817E"/>
</svg>
